<?xml version="1.0" encoding="UTF-8" standalone="no"?>
<!-- Created with Inkscape (http://www.inkscape.org/) -->

<svg
   width="512"
   height="512"
   viewBox="0 0 512 512"
   version="1.1"
   id="svg1"
   inkscape:export-filename="gamerecommender-logo.svg"
   inkscape:export-xdpi="96"
   inkscape:export-ydpi="96"
   sodipodi:docname="gamerecommender-favicon.svg"
   xmlns:inkscape="http://www.inkscape.org/namespaces/inkscape"
   xmlns:sodipodi="http://sodipodi.sourceforge.net/DTD/sodipodi-0.dtd"
   xmlns="http://www.w3.org/2000/svg"
   xmlns:svg="http://www.w3.org/2000/svg">
  <sodipodi:namedview
     id="namedview1"
     pagecolor="#ffffff"
     bordercolor="#000000"
     borderopacity="0.25"
     inkscape:showpageshadow="2"
     inkscape:pageopacity="0.0"
     inkscape:pagecheckerboard="0"
     inkscape:deskcolor="#d1d1d1"
     inkscape:document-units="px" />
  <defs
     id="defs1" />
  <g
     inkscape:label="Layer 1"
     inkscape:groupmode="layer"
     id="layer1">
    <path
       d="m 256.89453,122.2308 c -120.03961,0 -149.46039,28.24601 -149.46039,28.24601 0,0 -59.681541,95.3208 -58.843476,170.64435 0.386356,34.71119 -6.087425,42.94994 10.880372,60.16306 16.967972,17.21311 60.905784,26.92464 60.905784,26.92464 0,0 29.42375,-84.73437 41.19237,-90.61869 11.76863,-5.88426 171.82167,-4.70741 185.94399,0 14.12231,4.70749 36.48185,88.2653 36.48185,88.2653 0,0 56.19597,-7.35535 72.37781,-24.27271 16.18184,-16.91738 12.35836,-32.80542 12.35836,-66.34593 0,-67.08105 -63.55017,-162.40666 -63.55017,-162.40666 0,0 -28.24672,-30.59937 -148.2865,-30.59937 z m -49.27711,30.84079 c 0,0 3.51189,14.3948 8.40923,19.19371 4.55437,4.46304 17.46324,6.92744 17.46324,6.92744 0,0 -12.9791,3.22464 -17.46324,7.94838 -4.48415,4.72378 -7.54677,18.3976 -7.54677,18.3976 0,0 -2.94411,-13.92806 -7.54658,-18.62429 -4.26596,-4.35279 -16.60079,-6.81317 -16.60079,-6.81317 0,0 12.27645,-3.41731 16.38521,-8.06446 4.37993,-4.95406 6.8997,-18.96521 6.8997,-18.96521 z m 73.75995,1.69728 c 0,0 7.6982,32.54668 18.43445,43.39826 9.9848,10.0921 38.28607,15.66461 38.28607,15.66461 0,0 -28.4555,7.29388 -38.28607,17.97555 -9.83057,10.68165 -16.54362,41.60142 -16.54362,41.60142 0,0 -6.45357,-31.49622 -16.54363,-42.1156 -9.35237,-9.84283 -36.39524,-15.40657 -36.39524,-15.40657 0,0 26.91583,-7.72513 35.92349,-18.23355 9.60228,-11.20241 15.12455,-42.88412 15.12455,-42.88412 z"
       id="path9"
       style="fill:#ff2050;fill-opacity:1;stroke-width:0.943562"
       sodipodi:nodetypes="sccccsscsscscccscsccccscsccccc" />
    <path
       d="m 207.65701,153.07968 c 0,0 3.51189,14.3948 8.40923,19.19371 4.55437,4.46304 17.46324,6.92744 17.46324,6.92744 0,0 -12.9791,3.22464 -17.46324,7.94838 -4.48415,4.72378 -7.54677,18.3976 -7.54677,18.3976 0,0 -2.94411,-13.92806 -7.54658,-18.62429 -4.26596,-4.35279 -16.60079,-6.81317 -16.60079,-6.81317 0,0 12.27645,-3.41731 16.38521,-8.06446 4.37993,-4.95406 6.8997,-18.96521 6.8997,-18.96521 z m 73.75995,1.69728 c 0,0 7.6982,32.54668 18.43445,43.39826 9.9848,10.0921 38.28607,15.66461 38.28607,15.66461 0,0 -28.4555,7.29388 -38.28607,17.97555 -9.83057,10.68165 -16.54362,41.60142 -16.54362,41.60142 0,0 -6.45357,-31.49622 -16.54363,-42.1156 -9.35237,-9.84283 -36.39524,-15.40657 -36.39524,-15.40657 0,0 26.91583,-7.72513 35.92349,-18.23355 9.60228,-11.20241 15.12455,-42.88412 15.12455,-42.88412 z"
       style="fill:#ffffff;fill-opacity:1;stroke:#ffffff;stroke-width:0.943562;stroke-opacity:1"
       id="path1" />
  </g>
</svg>
