<?xml version="1.0" encoding="UTF-8" standalone="no"?>
<!-- Created with Inkscape (http://www.inkscape.org/) -->

<svg
   width="512"
   height="512"
   viewBox="0 0 512 512"
   version="1.1"
   id="svg1"
   fill="white"
   xmlns="http://www.w3.org/2000/svg"
   xmlns:svg="http://www.w3.org/2000/svg">
  <defs
     id="defs1" />
  <g
     id="layer1">
    <path
       d="m 254.44103,107.2637 c -127.21996,0 -158.400393,29.93555 -158.400393,29.93555 0,0 -63.25159,101.02248 -62.363281,180.85156 0.409359,36.78745 -6.4516,45.51899 11.53125,63.76172 17.982851,18.24273 64.548824,28.53515 64.548824,28.53515 0,0 31.18373,-89.80278 43.65625,-96.03906 12.47256,-6.23626 182.09935,-4.989 197.06641,0 14.96704,4.98903 38.66406,93.54492 38.66406,93.54492 0,0 59.55729,-7.79531 76.70703,-25.72461 17.14976,-17.92927 13.09766,-34.76768 13.09766,-70.31445 0,-71.09351 -67.35156,-172.12109 -67.35156,-172.12109 0,0 -29.93629,-32.42969 -157.15625,-32.42969 z m -52.22461,32.68555 c 0,0 3.72195,15.25582 8.91211,20.34179 4.8269,4.73 18.50781,7.3418 18.50781,7.3418 0,0 -13.75549,3.41752 -18.50781,8.42383 -4.75232,5.00632 -7.99805,19.49805 -7.99805,19.49805 0,0 -3.12025,-14.76116 -7.99805,-19.73829 -4.5211,-4.61317 -17.59375,-7.2207 -17.59375,-7.2207 0,0 13.01075,-3.62174 17.36524,-8.54687 4.64204,-5.25039 7.3125,-20.09961 7.3125,-20.09961 z m 78.17187,1.79882 c 0,0 8.15867,34.49344 19.53711,45.99415 10.58205,10.69574 40.57617,16.60156 40.57617,16.60156 0,0 -30.15762,7.7302 -40.57617,19.05078 -10.41855,11.32059 -17.5332,44.08984 -17.5332,44.08984 0,0 -6.83959,-33.38018 -17.5332,-44.63476 -9.91167,-10.43161 -38.57227,-16.32813 -38.57227,-16.32813 0,0 28.52589,-8.18721 38.07227,-19.32422 10.17679,-11.87248 16.02929,-45.44922 16.02929,-45.44922 z"
       id="path9" />
  </g>
</svg>
