<?xml version="1.0" encoding="UTF-8" standalone="no"?>
<!-- Created with Inkscape (http://www.inkscape.org/) -->

<svg
   width="2560"
   height="512"
   viewBox="0 0 2560 512"
   version="1.1"
   id="svg1"
   xml:space="preserve"
   xmlns="http://www.w3.org/2000/svg"
   xmlns:svg="http://www.w3.org/2000/svg"><defs
     id="defs1" /><g
     id="layer1"><path
       d="m 212.27544,182.09926 c -68.88146,0 -85.76367,16.20819 -85.76367,16.20819 0,0 -34.246695,54.6972 -33.765728,97.91953 0.221644,19.91805 -3.493134,24.64563 6.243423,34.5229 9.736575,9.87727 34.949075,15.44996 34.949075,15.44996 0,0 16.88399,-48.62247 23.63706,-51.99902 6.7531,-3.37652 98.59514,-2.70122 106.69884,0 8.1037,2.70126 20.93412,50.64859 20.93412,50.64859 0,0 32.24645,-4.22066 41.53194,-13.92822 9.2855,-9.70757 7.09155,-18.82448 7.09155,-38.07077 0,-38.4926 -36.46655,-93.19256 -36.46655,-93.19256 0,0 -16.2086,-17.5586 -85.09006,-17.5586 z m -28.27628,17.69713 c 0,0 2.01519,8.26006 4.82533,11.01378 2.61347,2.56099 10.02079,3.97512 10.02079,3.97512 0,0 -7.4477,1.85037 -10.02079,4.56096 -2.57308,2.71061 -4.33042,10.55695 -4.33042,10.55695 0,0 -1.68943,-7.99223 -4.33043,-10.68703 -2.44789,-2.49773 -9.52589,-3.90955 -9.52589,-3.90955 0,0 7.04448,-1.96093 9.40216,-4.62757 2.51336,-2.84275 3.95925,-10.88266 3.95925,-10.88266 z m 42.32506,0.97394 c 0,0 4.4174,18.67601 10.57809,24.90289 5.7295,5.79107 21.96941,8.9887 21.96941,8.9887 0,0 -16.32844,4.18539 -21.96941,10.31477 -5.64098,6.12937 -9.4931,23.87182 -9.4931,23.87182 0,0 -3.7032,-18.07323 -9.4931,-24.16687 -5.36654,-5.64803 -20.88441,-8.84063 -20.88441,-8.84063 0,0 15.44493,-4.43285 20.61368,-10.46282 5.51009,-6.42819 8.67884,-24.60786 8.67884,-24.60786 z"
       id="path9"
       style="stroke-width:0.541437" /><path
       style="-inkscape-font-specification:'Franklin Gothic Medium, ';fill:#ffffff;fill-opacity:1;stroke-width:1.2898"
       d="m 510.69637,258.22186 v 76.19548 h -11.89871 l -8.1872,-20.08591 c -8.66023,14.91889 -22.08722,22.37833 -40.28098,22.37833 -20.30425,0 -35.47785,-7.71416 -45.5208,-23.14247 -9.97018,-15.42831 -14.95527,-33.29458 -14.95527,-53.59882 0,-21.46864 5.56729,-39.62601 16.70186,-54.47212 11.20737,-14.91889 26.85401,-22.37834 46.93992,-22.37834 14.99165,0 27.32702,4.3665 37.00611,13.09951 9.67908,8.66023 15.79218,19.46732 18.33931,32.42129 l -23.36078,4.14817 c -4.36651,-18.19375 -14.80974,-27.29063 -31.32967,-27.29063 -10.55238,0 -19.17622,4.29372 -25.87152,12.88117 -6.62253,8.58745 -9.9338,21.79612 -9.9338,39.62601 0,37.62471 11.78956,56.43707 35.36867,56.43707 9.16965,0 16.73826,-3.16572 22.70582,-9.49715 6.04033,-6.33144 9.0605,-14.70057 9.0605,-25.10739 h -30.78386 v -21.6142 z m 123.35373,76.19548 h -23.68829 c -2.11047,-6.69531 -3.38404,-14.11837 -3.82069,-22.26916 -6.62253,16.37439 -19.06706,24.56158 -37.33359,24.56158 -10.98904,0 -19.83121,-3.2021 -26.52652,-9.60631 -6.62253,-6.47697 -9.93379,-14.59139 -9.93379,-24.34326 0,-25.32571 22.23278,-37.98857 66.69834,-37.98857 1.7466,0 4.11179,0.0364 7.09556,0.10912 v -8.29636 c 0,-11.42568 -7.78693,-17.13852 -23.36079,-17.13852 -15.13721,0 -23.72466,5.71284 -25.76237,17.13852 l -21.17754,-3.16572 c 1.16441,-9.16965 5.89478,-16.70186 14.19113,-22.59665 8.29636,-5.96755 20.30425,-8.95133 36.02366,-8.95133 8.51468,0 15.4647,0.72775 20.85006,2.18326 5.38535,1.38273 9.93379,3.7843 13.64532,7.20472 3.71153,3.34766 6.25865,7.0228 7.64137,11.02543 1.45551,3.92985 2.18326,10.62516 2.18326,20.08591 v 49.77815 c 0,7.20473 1.09163,14.62778 3.27488,22.26916 z m -27.50898,-56.10956 c -32.16657,0 -48.24986,7.67777 -48.24986,23.0333 0,4.58483 1.60105,8.51468 4.80315,11.78955 3.27488,3.20211 8.1872,4.80316 14.73695,4.80316 9.46075,0 16.59271,-2.98378 21.39587,-8.95134 4.87593,-6.04032 7.31389,-12.88117 7.31389,-20.52255 z m 218.65264,56.10956 h -26.08985 v -68.66327 c 0,-14.2639 -6.33144,-21.39585 -18.99431,-21.39585 -7.35027,0 -13.24505,2.69267 -17.68433,8.07802 -4.36649,5.38536 -6.54974,13.427 -6.54974,24.12493 v 57.85617 h -26.41735 v -68.66327 c 0,-14.48223 -5.93117,-21.72334 -17.79351,-21.72334 -7.20473,0 -13.28144,2.911 -18.23014,8.73301 -4.87593,5.82201 -7.3139,13.75448 -7.3139,23.79743 v 57.85617 h -25.6532 V 224.16313 h 24.12492 v 23.46996 c 7.85971,-17.17491 20.12231,-25.76237 36.78779,-25.76237 16.22884,0 26.78123,8.58746 31.65716,25.76237 8.87855,-17.17491 21.14115,-25.76237 36.78778,-25.76237 10.62516,0 19.17623,3.31126 25.6532,9.93379 6.47699,6.62253 9.71548,14.84612 9.71548,24.67076 z m 99.99295,-35.15034 22.48748,3.05654 c -2.911,9.97019 -8.58745,18.19377 -17.02935,24.67075 -8.44191,6.47698 -19.03068,9.71547 -31.76631,9.71547 -15.28276,0 -27.58175,-5.13064 -36.89696,-15.39192 -9.3152,-10.26128 -13.9728,-24.16132 -13.9728,-41.70011 0,-16.66549 4.69399,-30.45636 14.08197,-41.37262 9.38799,-10.91626 22.12362,-16.37439 38.20691,-16.37439 15.7194,0 27.87283,5.38536 36.46029,16.15607 8.58745,10.77071 12.88118,24.59797 12.88118,41.48178 l -0.10912,2.83822 h -75.64965 c 0,7.49583 0.69136,13.49977 2.07408,18.01183 1.45549,4.51205 4.29371,8.4419 8.51466,11.78956 4.22097,3.34765 9.49716,5.02148 15.82859,5.02148 12.29898,0 20.59533,-5.96755 24.88906,-17.90266 z m -1.52828,-32.9671 c -0.0727,-7.93248 -2.47433,-14.40946 -7.20473,-19.43094 -4.6576,-5.02149 -10.44321,-7.53223 -17.35684,-7.53223 -6.84087,0 -12.55371,2.36519 -17.13854,7.09557 -4.58483,4.65761 -7.2775,11.28014 -8.07802,19.8676 z m 166.25457,68.11744 h -28.3823 l -23.1423,-61.24021 h -37.7703 v 61.24021 H 973.76405 V 185.41042 h 64.62425 c 17.9754,0 31.1841,4.07541 39.626,12.22622 8.4419,8.07803 12.6629,18.55763 12.6629,31.43881 0,19.13984 -8.9513,32.31212 -26.8541,39.51685 z m -89.2949,-82.74523 h 33.4038 c 9.679,0 16.8837,-2.0377 21.6141,-6.11311 4.7304,-4.0754 7.0956,-9.67908 7.0956,-16.81104 0,-6.54975 -2.3288,-11.82594 -6.9864,-15.82857 -4.6576,-4.0754 -11.171,-6.1131 -19.5401,-6.1131 h -35.587 z m 182.738,47.59489 22.4876,3.05654 c -2.911,9.97019 -8.5874,18.19377 -17.0293,24.67075 -8.4419,6.47698 -19.0307,9.71547 -31.7664,9.71547 -15.2828,0 -27.5818,-5.13064 -36.8969,-15.39192 -9.3152,-10.26128 -13.9728,-24.16132 -13.9728,-41.70011 0,-16.66549 4.694,-30.45636 14.0819,-41.37262 9.388,-10.91626 22.1237,-16.37439 38.207,-16.37439 15.7193,0 27.8727,5.38536 36.4601,16.15607 8.5875,10.77071 12.8813,24.59797 12.8813,41.48178 l -0.1094,2.83822 h -75.6498 c 0,7.49583 0.6914,13.49977 2.0742,18.01183 1.4554,4.51205 4.2936,8.4419 8.5147,11.78956 4.2209,3.34765 9.497,5.02148 15.8285,5.02148 12.2989,0 20.5953,-5.96755 24.8891,-17.90266 z m -1.5283,-32.9671 c -0.073,-7.93248 -2.4745,-14.40946 -7.2046,-19.43094 -4.6577,-5.02149 -10.4433,-7.53223 -17.3569,-7.53223 -6.8408,0 -12.5536,2.36519 -17.1385,7.09557 -4.5849,4.65761 -7.2775,11.28014 -8.078,19.8676 z m 112.3284,27.61813 21.3959,2.18325 c -2.7655,13.82725 -8.1145,24.05215 -16.047,30.67468 -7.9324,6.62253 -17.5023,9.9338 -28.7098,9.9338 -15.2099,0 -26.9266,-5.5309 -35.1502,-16.59271 -8.1509,-11.13459 -12.2263,-24.74352 -12.2263,-40.82681 0,-16.59271 4.4757,-30.3108 13.4271,-41.15428 8.9513,-10.84349 20.8863,-16.26524 35.8052,-16.26524 24.0158,0 38.3161,12.66286 42.901,37.98858 l -21.3959,2.94739 c -1.8921,-13.6817 -8.6238,-20.52255 -20.195,-20.52255 -8.4419,0 -14.5915,3.71152 -18.4486,11.13457 -3.7843,7.35027 -5.6764,16.26522 -5.6764,26.74483 0,11.13458 1.9649,19.72204 5.8948,25.76238 4.0026,6.04032 9.5699,9.06048 16.7019,9.06048 10.9162,0 18.1573,-7.02279 21.7233,-21.06837 z m 83.6185,42.79173 c -16.3015,0 -28.7461,-5.85839 -37.3336,-17.57518 -8.5875,-11.71678 -12.8813,-25.14378 -12.8813,-40.28099 0,-16.30161 4.7304,-29.87415 14.1912,-40.71763 9.5335,-10.84349 22.0872,-16.26524 37.6611,-16.26524 14.7733,0 26.8904,5.27619 36.3511,15.82857 9.5335,10.55239 14.3003,24.27049 14.3003,41.1543 0,17.39324 -4.9487,31.40244 -14.846,42.0276 -9.8247,10.55238 -22.3056,15.82857 -37.4428,15.82857 z m 0.8732,-20.52257 c 16.7383,0 25.1074,-12.48092 25.1074,-37.44276 0,-11.28013 -2.0013,-20.15869 -6.0039,-26.63567 -4.0025,-6.54975 -10.152,-9.82462 -18.4484,-9.82462 -8.5875,0 -14.9553,3.38403 -19.1035,10.1521 -4.1481,6.69531 -6.2222,15.61026 -6.2222,26.74483 0,12.00789 2.1832,21.17755 6.5497,27.50898 4.4393,6.33143 10.4796,9.49714 18.1209,9.49714 z m 238.8478,18.23015 h -26.0899 v -68.66327 c 0,-14.2639 -6.3314,-21.39585 -18.9942,-21.39585 -7.3503,0 -13.2451,2.69267 -17.6844,8.07802 -4.3665,5.38536 -6.5498,13.427 -6.5498,24.12493 v 57.85617 h -26.4172 v -68.66327 c 0,-14.48223 -5.9312,-21.72334 -17.7936,-21.72334 -7.2047,0 -13.2814,2.911 -18.2301,8.73301 -4.8759,5.82201 -7.3138,13.75448 -7.3138,23.79743 v 57.85617 h -25.6533 V 224.16313 h 24.125 v 23.46996 c 7.8597,-17.17491 20.1222,-25.76237 36.7876,-25.76237 16.2289,0 26.7814,8.58746 31.6573,25.76237 8.8785,-17.17491 21.1411,-25.76237 36.7877,-25.76237 10.6251,0 19.1762,3.31126 25.6532,9.93379 6.477,6.62253 9.7155,14.84612 9.7155,24.67076 z m 194.5277,0 h -26.0899 v -68.66327 c 0,-14.2639 -6.3314,-21.39585 -18.9942,-21.39585 -7.3503,0 -13.245,2.69267 -17.6843,8.07802 -4.3666,5.38536 -6.5499,13.427 -6.5499,24.12493 v 57.85617 h -26.4172 v -68.66327 c 0,-14.48223 -5.9312,-21.72334 -17.7936,-21.72334 -7.2047,0 -13.2814,2.911 -18.2301,8.73301 -4.8759,5.82201 -7.3138,13.75448 -7.3138,23.79743 v 57.85617 h -25.6533 V 224.16313 h 24.125 v 23.46996 c 7.8597,-17.17491 20.1223,-25.76237 36.7878,-25.76237 16.2287,0 26.7811,8.58746 31.6571,25.76237 8.8785,-17.17491 21.1411,-25.76237 36.7878,-25.76237 10.6251,0 19.1761,3.31126 25.6531,9.93379 6.477,6.62253 9.7155,14.84612 9.7155,24.67076 z m 99.993,-35.15034 22.4876,3.05654 c -2.9111,9.97019 -8.5876,18.19377 -17.0295,24.67075 -8.4419,6.47698 -19.0306,9.71547 -31.7663,9.71547 -15.2827,0 -27.5817,-5.13064 -36.897,-15.39192 -9.3151,-10.26128 -13.9727,-24.16132 -13.9727,-41.70011 0,-16.66549 4.6939,-30.45636 14.0818,-41.37262 9.3881,-10.91626 22.1237,-16.37439 38.207,-16.37439 15.7194,0 27.8729,5.38536 36.4604,16.15607 8.5874,10.77071 12.8811,24.59797 12.8811,41.48178 l -0.1095,2.83822 h -75.6498 c 0,7.49583 0.6914,13.49977 2.0741,18.01183 1.4555,4.51205 4.2938,8.4419 8.5147,11.78956 4.221,3.34765 9.4972,5.02148 15.8287,5.02148 12.2989,0 20.5952,-5.96755 24.8889,-17.90266 z m -1.5283,-32.9671 c -0.073,-7.93248 -2.4746,-14.40946 -7.2047,-19.43094 -4.6577,-5.02149 -10.4433,-7.53223 -17.3568,-7.53223 -6.8409,0 -12.5537,2.36519 -17.1386,7.09557 -4.5849,4.65761 -7.2776,11.28014 -8.0781,19.8676 z m 139.9463,68.11744 h -24.889 v -68.88159 c 0,-7.2775 -1.6738,-12.73563 -5.0214,-16.37438 -3.3477,-3.71153 -7.3867,-5.56729 -12.1171,-5.56729 -6.477,0 -12.1534,2.83823 -17.0293,8.51468 -4.876,5.67645 -7.314,14.22752 -7.314,25.6532 v 56.65538 h -24.889 V 224.16313 h 22.7058 v 25.54405 c 7.9325,-18.55764 19.067,-27.83646 33.4037,-27.83646 9.6791,0 17.9391,3.05655 24.78,9.16965 6.9135,6.11312 10.3703,16.84744 10.3703,32.20297 z m 120.4064,0 h -23.2517 v -22.26916 c -6.4042,16.37439 -17.2477,24.56158 -32.5304,24.56158 -13.5362,0 -23.9067,-5.64007 -31.1114,-16.92021 -7.2047,-11.28013 -10.807,-25.28932 -10.807,-42.02759 0,-15.57385 3.7479,-29.1464 11.2437,-40.71764 7.4958,-11.57123 18.1574,-17.35684 31.9847,-17.35684 14.1911,0 24.0521,6.47698 29.5831,19.43093 v -53.70799 h 24.889 z m -24.889,-65.0609 c 0,-8.95133 -2.1469,-15.90135 -6.4407,-20.85005 -4.221,-5.02148 -9.7155,-7.53222 -16.4835,-7.53222 -7.3503,0 -13.0996,3.2021 -17.2477,9.60631 -4.1482,6.40421 -6.2223,15.97413 -6.2223,28.70976 0,24.59797 7.7142,36.89695 23.1425,36.89695 6.1131,0 11.4984,-2.6199 16.156,-7.85971 4.7305,-5.31257 7.0957,-12.08065 7.0957,-20.30423 z m 247.1693,65.0609 h -28.7098 l -11.8987,-35.47783 h -57.3103 l -11.6803,35.47783 h -22.9242 l 49.4507,-149.00692 h 33.0762 z m -47.8131,-56.98286 -21.7235,-66.48001 -21.7233,66.48001 z m 92.5699,56.98286 h -26.8541 V 185.41042 h 26.8541 z"
       id="text9"
       aria-label="GameRecommender AI" /><g
       id="layer1-3"
       transform="matrix(0.56861141,0,0,0.56861141,66.567114,114.16041)"><path
         d="m 256.89453,122.2308 c -120.03961,0 -149.46039,28.24601 -149.46039,28.24601 0,0 -59.681541,95.3208 -58.843476,170.64435 0.386356,34.71119 -6.087425,42.94994 10.880372,60.16306 16.967972,17.21311 60.905784,26.92464 60.905784,26.92464 0,0 29.42375,-84.73437 41.19237,-90.61869 11.76863,-5.88426 171.82167,-4.70741 185.94399,0 14.12231,4.70749 36.48185,88.2653 36.48185,88.2653 0,0 56.19597,-7.35535 72.37781,-24.27271 16.18184,-16.91738 12.35836,-32.80542 12.35836,-66.34593 0,-67.08105 -63.55017,-162.40666 -63.55017,-162.40666 0,0 -28.24672,-30.59937 -148.2865,-30.59937 z m -49.27711,30.84079 c 0,0 3.51189,14.3948 8.40923,19.19371 4.55437,4.46304 17.46324,6.92744 17.46324,6.92744 0,0 -12.9791,3.22464 -17.46324,7.94838 -4.48415,4.72378 -7.54677,18.3976 -7.54677,18.3976 0,0 -2.94411,-13.92806 -7.54658,-18.62429 -4.26596,-4.35279 -16.60079,-6.81317 -16.60079,-6.81317 0,0 12.27645,-3.41731 16.38521,-8.06446 4.37993,-4.95406 6.8997,-18.96521 6.8997,-18.96521 z m 73.75995,1.69728 c 0,0 7.6982,32.54668 18.43445,43.39826 9.9848,10.0921 38.28607,15.66461 38.28607,15.66461 0,0 -28.4555,7.29388 -38.28607,17.97555 -9.83057,10.68165 -16.54362,41.60142 -16.54362,41.60142 0,0 -6.45357,-31.49622 -16.54363,-42.1156 -9.35237,-9.84283 -36.39524,-15.40657 -36.39524,-15.40657 0,0 26.91583,-7.72513 35.92349,-18.23355 9.60228,-11.20241 15.12455,-42.88412 15.12455,-42.88412 z"
         id="path9-7"
         style="fill:#ff2050;fill-opacity:1;stroke-width:0.943562" /><path
         d="m 207.65701,153.07968 c 0,0 3.51189,14.3948 8.40923,19.19371 4.55437,4.46304 17.46324,6.92744 17.46324,6.92744 0,0 -12.9791,3.22464 -17.46324,7.94838 -4.48415,4.72378 -7.54677,18.3976 -7.54677,18.3976 0,0 -2.94411,-13.92806 -7.54658,-18.62429 -4.26596,-4.35279 -16.60079,-6.81317 -16.60079,-6.81317 0,0 12.27645,-3.41731 16.38521,-8.06446 4.37993,-4.95406 6.8997,-18.96521 6.8997,-18.96521 z m 73.75995,1.69728 c 0,0 7.6982,32.54668 18.43445,43.39826 9.9848,10.0921 38.28607,15.66461 38.28607,15.66461 0,0 -28.4555,7.29388 -38.28607,17.97555 -9.83057,10.68165 -16.54362,41.60142 -16.54362,41.60142 0,0 -6.45357,-31.49622 -16.54363,-42.1156 -9.35237,-9.84283 -36.39524,-15.40657 -36.39524,-15.40657 0,0 26.91583,-7.72513 35.92349,-18.23355 9.60228,-11.20241 15.12455,-42.88412 15.12455,-42.88412 z"
         style="fill:#ffffff;fill-opacity:1;stroke:#ffffff;stroke-width:0.943562;stroke-opacity:1"
         id="path1" /></g></g></svg>
